<svg xmlns="http://www.w3.org/2000/svg" viewBox="0 0 22.28 32"><title>Birthday Cards</title><g id="Layer_2" data-name="Layer 2"><g id="Layer_1-2" data-name="Layer 1"> <path fill="#EC3236" d="M20.38,4.91h-.5v-3A1.9,1.9,0,0,0,17.46.07L.46,4.93h0A.63.63,0,0,0,0,5.54V31.37A.63.63,0,0,0,.63,32H20.38a1.9,1.9,0,0,0,1.9-1.9V6.81A1.9,1.9,0,0,0,20.38,4.91ZM17.8,1.29a.62.62,0,0,1,.56.11.62.62,0,0,1,.25.5v3H5.15ZM21,30.1a.64.64,0,0,1-.64.63H1.27V6.17H20.38a.64.64,0,0,1,.64.64Z"/> <path fill="#EC3236" d="M17.63,24.88V21.63a1.87,1.87,0,0,0,.35-.28l.18-.19v-3a2,2,0,0,0-2-2h-1.4V14.55a1.43,1.43,0,0,0,.94-1.35,2.83,2.83,0,0,0-.54-1.37c-.24-.41-.48-.74-.49-.76l-.42-.58-.41.58s-.25.35-.49.76a2.72,2.72,0,0,0-.54,1.37,1.43,1.43,0,0,0,.94,1.35v1.54H11.64V14.55a1.43,1.43,0,0,0,.94-1.35A2.72,2.72,0,0,0,12,11.83c-.24-.41-.48-.74-.49-.76l-.41-.58-.42.58s-.25.35-.49.76a2.83,2.83,0,0,0-.54,1.37,1.43,1.43,0,0,0,.94,1.35v1.54H8.57V14.55a1.43,1.43,0,0,0,.94-1.35A2.83,2.83,0,0,0,9,11.83c-.25-.41-.49-.74-.5-.76l-.41-.58-.41.58s-.25.35-.49.76a2.72,2.72,0,0,0-.54,1.37,1.44,1.44,0,0,0,.93,1.35v1.54H6.16a2.05,2.05,0,0,0-2,2V21.2l.14.15a1.85,1.85,0,0,0,.39.3v3.23H3.1v2.93H19.18V24.88ZM14.21,12.29a2.87,2.87,0,0,1,.43.91.43.43,0,0,1-.43.43.43.43,0,0,1-.43-.43A3.58,3.58,0,0,1,14.21,12.29Zm-3.07,0a3.43,3.43,0,0,1,.43.91.43.43,0,0,1-.43.43.43.43,0,0,1-.43-.43A3,3,0,0,1,11.14,12.29Zm-3.08,0a3.12,3.12,0,0,1,.43.91.43.43,0,1,1-.86,0A3.25,3.25,0,0,1,8.06,12.29ZM5.13,18.13a1,1,0,0,1,1-1h10a1,1,0,0,1,1,1v2.61a.81.81,0,0,1-.46.14.75.75,0,0,1-.55-.23l0,0a1.76,1.76,0,0,0-1.28-.54h0a1.75,1.75,0,0,0-1.28.55l0,0a.77.77,0,0,1-.55.24h0a.81.81,0,0,1-.55-.23v0a1.79,1.79,0,0,0-1.28-.53h0a1.76,1.76,0,0,0-1.28.54.75.75,0,0,1-.55.23h0a.74.74,0,0,1-.56-.24h0a1.79,1.79,0,0,0-1.3-.56h0a1.76,1.76,0,0,0-1.29.56h0a.78.78,0,0,1-.56.24h0a.73.73,0,0,1-.41-.12V18.13Zm.53,3.76a1.74,1.74,0,0,0,1.17-.55h0a.72.72,0,0,1,.55-.24h0a.74.74,0,0,1,.56.24H8a1.78,1.78,0,0,0,1.28.56h0a1.76,1.76,0,0,0,1.28-.54.77.77,0,0,1,.55-.24h0a.75.75,0,0,1,.55.23l0,0a1.79,1.79,0,0,0,1.27.53h0a1.75,1.75,0,0,0,1.28-.55l0,0a.78.78,0,0,1,.56-.24h0a.76.76,0,0,1,.55.24l0,0a1.75,1.75,0,0,0,1.21.55v3h-11Zm12.5,4.91h-14v-.91H18.16Z"/></g></g></svg>