<svg xmlns="http://www.w3.org/2000/svg" viewBox="0 0 32 29.52"><title>Calendars</title><g id="Layer_2" data-name="Layer 2"><g id="Layer_1-2" data-name="Layer 1"><path fill="#EC3236" d="M29.6,3.1H26.47V1.35A1.37,1.37,0,0,0,25.11,0H23.18a1.37,1.37,0,0,0-1.35,1.35V3.1H10.33V1.35A1.37,1.37,0,0,0,9,0H7A1.37,1.37,0,0,0,5.69,1.35V3.1H2.4A2.41,2.41,0,0,0,0,5.5V27.12a2.41,2.41,0,0,0,2.4,2.4H29.6a2.41,2.41,0,0,0,2.4-2.4V5.5a2.41,2.41,0,0,0-2.4-2.4ZM23.26,1.47H25V5.73H23.26Zm-16.14,0H8.9V5.73H7.12ZM2.44,4.53H5.73V5.8A1.37,1.37,0,0,0,7.08,7.16H9A1.37,1.37,0,0,0,10.37,5.8V4.53H21.83V5.8a1.37,1.37,0,0,0,1.35,1.36h1.93A1.37,1.37,0,0,0,26.47,5.8V4.53h3.17a1,1,0,0,1,1,1V9.36H1.47V5.5a1,1,0,0,1,1-1ZM29.6,28.09H2.44a1,1,0,0,1-1-1V10.79h29.1V27.12a1,1,0,0,1-1,1ZM7.78,14.7a.69.69,0,0,1-.69.7H4.76a.7.7,0,0,1,0-1.39H7.09a.67.67,0,0,1,.69.69Zm6.69,0a.69.69,0,0,1-.69.7H11.46a.7.7,0,1,1,0-1.39h2.32a.68.68,0,0,1,.69.69Zm6.66,0a.69.69,0,0,1-.69.7H18.11a.7.7,0,0,1,0-1.39h2.33a.67.67,0,0,1,.69.69Zm6.69,0a.69.69,0,0,1-.69.7H24.81a.7.7,0,1,1,0-1.39h2.32a.67.67,0,0,1,.69.69Zm-20,4.76a.69.69,0,0,1-.69.7H4.76a.69.69,0,0,1-.69-.7.69.69,0,0,1,.69-.69H7.09a.69.69,0,0,1,.69.69Zm6.69,0a.69.69,0,0,1-.69.7H11.46a.7.7,0,0,1-.7-.7.69.69,0,0,1,.7-.69h2.32a.7.7,0,0,1,.69.69Zm6.66,0a.69.69,0,0,1-.69.7H18.11a.69.69,0,0,1-.69-.7.69.69,0,0,1,.69-.69h2.33a.69.69,0,0,1,.69.69Zm6.69,0a.69.69,0,0,1-.69.7H24.81a.7.7,0,0,1-.7-.7.69.69,0,0,1,.7-.69h2.32a.69.69,0,0,1,.69.69Zm-20,4.8a.69.69,0,0,1-.69.7H4.76a.69.69,0,0,1-.69-.7.69.69,0,0,1,.69-.69H7.09a.64.64,0,0,1,.69.69Zm6.69,0a.69.69,0,0,1-.69.7H11.46a.7.7,0,0,1-.7-.7.69.69,0,0,1,.7-.69h2.32a.65.65,0,0,1,.69.69Zm6.66,0a.69.69,0,0,1-.69.7H18.11a.69.69,0,0,1-.69-.7.69.69,0,0,1,.69-.69h2.33a.64.64,0,0,1,.69.69Zm6.69,0a.69.69,0,0,1-.69.7H24.81a.7.7,0,0,1-.7-.7.69.69,0,0,1,.7-.69h2.32a.64.64,0,0,1,.69.69Z"/></g></g></svg>