<svg xmlns="http://www.w3.org/2000/svg" viewBox="0 0 32 26.28"><title>Certificates</title><g id="Layer_2" data-name="Layer 2"><g id="Layer_1-2" data-name="Layer 1"><path fill="#EC3236" d="M30.12,0H1.88A1.88,1.88,0,0,0,0,1.88V20.56a1.88,1.88,0,0,0,1.88,1.88H18.37l-.87,1.5a.63.63,0,0,0,.47.93l1.25.15L20,26a.6.6,0,0,0,.49.25h0A.61.61,0,0,0,21,26l1.57-2.72L24.16,26a.62.62,0,0,0,.5.31h0a.62.62,0,0,0,.5-.25L26,25l1.27-.16a.64.64,0,0,0,.48-.34.62.62,0,0,0,0-.59l-.86-1.5h3.3A1.88,1.88,0,0,0,32,20.56V1.88A1.88,1.88,0,0,0,30.12,0Zm-6.2,21.61a2.76,2.76,0,0,1-4.09-2.42,2.77,2.77,0,1,1,4.09,2.42Zm-3.51,2.92-.36-.48a.62.62,0,0,0-.42-.24l-.57-.07.83-1.44.08-.07a4.14,4.14,0,0,0,.7.48,3.55,3.55,0,0,0,.63.28Zm5.13-.71a.65.65,0,0,0-.43.24l-.34.46L23.88,23a3.55,3.55,0,0,0,.63-.28,4.1,4.1,0,0,0,.73-.5l.89,1.54Zm5.21-3.26a.63.63,0,0,1-.63.63h-4l0,0a3.94,3.94,0,0,0,.53-2,4,4,0,1,0-7.51,2v0H1.88a.63.63,0,0,1-.63-.63V1.88a.63.63,0,0,1,.63-.63H30.12a.63.63,0,0,1,.63.63Z"/><path fill="#EC3236" d="M22.56,9.62H9.38a.63.63,0,0,0-.63.63.62.62,0,0,0,.63.62H22.56a.62.62,0,0,0,.63-.62A.63.63,0,0,0,22.56,9.62Z"/><path  fill="#EC3236" d="M22.56,12.12H9.38a.63.63,0,0,0-.63.63.62.62,0,0,0,.63.62H22.56a.62.62,0,0,0,.63-.62A.63.63,0,0,0,22.56,12.12Z"/><path fill="#EC3236" d="M13.12,6.69H17a.63.63,0,0,0,0-1.25H13.12a.63.63,0,0,0,0,1.25Z"/><path
fill="#EC3236" d="M13.75,16.19H11.12a.63.63,0,0,0,0,1.25h2.63a.63.63,0,1,0,0-1.25Z"/></g></g></svg>