<svg xmlns="http://www.w3.org/2000/svg" viewBox="0 0 29.68 32"><title>Danglers</title><g id="Layer_2" data-name="Layer 2"><g id="Layer_1-2" data-name="Layer 1"> <path fill="#EC3236" d="M6.07,28.87a.63.63,0,0,0,.63.63,4.21,4.21,0,0,0,4.2-4.2.63.63,0,0,0-.63-.62.63.63,0,0,0-.63.62A3,3,0,0,1,6.7,28.25.63.63,0,0,0,6.07,28.87Z"/> <path fill="#EC3236" d="M4.73,18.15v.75a6.7,6.7,0,1,0,8.66,6.4,6.7,6.7,0,0,0-4.73-6.4v-.75a2,2,0,0,0-.57-1.39,1.87,1.87,0,0,0-.77-.47v-.86a5.44,5.44,0,0,0,2.07.8,1.91,1.91,0,0,0,0-3.81,5.57,5.57,0,0,0-2.07.79V.63a.63.63,0,1,0-1.25,0V13.21A5.52,5.52,0,0,0,4,12.42a1.91,1.91,0,0,0,0,3.81,5.4,5.4,0,0,0,2.07-.8v.86A2,2,0,0,0,4.73,18.15Zm7.41,7.15A5.45,5.45,0,1,1,5.5,20a5.32,5.32,0,0,1,1.2-.13A5.23,5.23,0,0,1,7.89,20h0A5.47,5.47,0,0,1,12.14,25.3ZM7.41,18.64a6.74,6.74,0,0,0-1.42,0v-.49a.71.71,0,0,1,.71-.71.73.73,0,0,1,.5.21.71.71,0,0,1,.21.5Zm2-5a.65.65,0,0,1,0,1.3,5.23,5.23,0,0,1-1.48-.65A5.43,5.43,0,0,1,9.39,13.67ZM4,15a.65.65,0,1,1,0-1.3,5.55,5.55,0,0,1,1.47.65A5.22,5.22,0,0,1,4,15Z"/> <path fill="#EC3236" d="M24,27a5.7,5.7,0,0,0,1.74-11.13v-.55A1.72,1.72,0,0,0,25.21,14a1.75,1.75,0,0,0-.61-.4v-.47a4.13,4.13,0,0,0,1.62.59,1.69,1.69,0,1,0,0-3.38A4.13,4.13,0,0,0,24.6,11V.63a.63.63,0,1,0-1.25,0V11a4.33,4.33,0,0,0-1.63-.59,1.7,1.7,0,0,0,0,3.39,4.21,4.21,0,0,0,1.63-.6v.47a1.77,1.77,0,0,0-1.12,1.63v.55A5.7,5.7,0,0,0,24,27Zm0-12.17a.48.48,0,0,1,.34.14.53.53,0,0,1,.15.35v.3a5.35,5.35,0,0,0-1,0v-.3A.49.49,0,0,1,24,14.78Zm2.24-3.15a.44.44,0,0,1,0,.88,4.11,4.11,0,0,1-1-.44A4.1,4.1,0,0,1,26.22,11.63Zm-4.5.88a.44.44,0,0,1,0-.88,3.88,3.88,0,0,1,1,.44A4.11,4.11,0,0,1,21.72,12.51ZM23,16.91a4.42,4.42,0,0,1,2,0h0a4.45,4.45,0,1,1-2,0Z"/> <path fill="#EC3236" d="M24,24.86a3.61,3.61,0,0,0,3.61-3.61.63.63,0,0,0-1.26,0A2.35,2.35,0,0,1,24,23.6a.63.63,0,0,0,0,1.26Z"/> <path fill="#EC3236" d="M9.82,23.84a.63.63,0,0,0,0-1.25A.63.63,0,0,0,9.82,23.84Z"/></g></g></svg>