<svg xmlns="http://www.w3.org/2000/svg" viewBox="0 0 23.96 32"><title>ID Cards</title><g id="Layer_2" data-name="Layer 2"><g id="Layer_1-2" data-name="Layer 1"> <path fill="#EC3236" d="M23.93,3.31A3.7,3.7,0,0,0,20.75,0C20.44,0,3.53,0,3.22,0A3.64,3.64,0,0,0,2.1.37,3.68,3.68,0,0,0,0,3.35c0,.44,0,24.86,0,25.3A3.7,3.7,0,0,0,3.22,32c.31,0,17.22,0,17.53,0a3.72,3.72,0,0,0,3.18-3.32c0-.39,0-24.95,0-25.34ZM22.45,29a2.25,2.25,0,0,1-1.21,1.38c-.48.22.23.21-9.26.21s-8.77,0-9.25-.21A2.3,2.3,0,0,1,1.51,29l-.09-.26V3.25L1.51,3A2.3,2.3,0,0,1,3.12,1.47c.25-.06.46-.07,8.86-.07s8.62,0,8.86.07a2.35,2.35,0,0,1,1.69,1.81c0,.09,0,5.78,0,12.82V28.75l-.1.26Z"/> <path fill="#EC3236" d="M11.38,3.67A3.86,3.86,0,0,0,8.3,6.47a4.57,4.57,0,0,0-.06,1.69,4.11,4.11,0,0,0,.7,1.56,4.17,4.17,0,0,0,1.18,1,.36.36,0,0,1,.12.09s-.07.05-.16.07a8.49,8.49,0,0,0-1.36.59,6.65,6.65,0,0,0-2.9,3.43A5.55,5.55,0,0,0,5.54,16a.7.7,0,0,0,1,.62c.2-.1.31-.27.39-.63a5,5,0,0,1,.43-1.18,5.16,5.16,0,0,1,9.15-.15A6.07,6.07,0,0,1,17,15.92c.11.46.18.58.36.7a.67.67,0,0,0,.89-.11c.19-.21.22-.38.13-.79a6.53,6.53,0,0,0-2.85-4.07,8,8,0,0,0-1.78-.8s0-.07.18-.14a4.37,4.37,0,0,0,1.2-1.11,3.82,3.82,0,0,0,.37-3.66,4,4,0,0,0-2-2,3.86,3.86,0,0,0-2.13-.27Zm1.36,1.47a2.47,2.47,0,0,1,1.6,1.72,2.75,2.75,0,0,1,0,1.21,2.38,2.38,0,0,1-2.19,1.78,2.2,2.2,0,0,1-1-.16A2.4,2.4,0,0,1,9.65,8.07a2.68,2.68,0,0,1,0-1.26,2.4,2.4,0,0,1,1.41-1.6,2,2,0,0,1,1-.17,1.72,1.72,0,0,1,.67.1Z"/> <path fill="#EC3236" d="M6.59,19.1a.7.7,0,0,0-.28.17.67.67,0,0,0,.14,1.11l.18.09H9.32c3,0,2.84,0,3.07-.24a.56.56,0,0,0,.17-.47.67.67,0,0,0-.38-.61c-.13-.07-.13-.07-2.79-.07-1.58,0-2.72,0-2.8,0Z"/> <path fill="#EC3236" d="M6.53,23.22a.77.77,0,0,0-.46.54.78.78,0,0,0,.39.74l.14.07h5.45l.13-.07a.63.63,0,0,0,.37-.67.61.61,0,0,0-.36-.57L12,23.18H9.33c-1.82,0-2.73,0-2.8,0Z"/> <path fill="#EC3236" d="M6.44,27.36a.7.7,0,0,0-.35.77.79.79,0,0,0,.35.46c.12.06.25.06,4.05.07,2.73,0,4,0,4.06,0a.73.73,0,0,0,.45-.46.67.67,0,0,0-.27-.76l-.12-.1h-4c-3.93,0-4,0-4.15.06Z"/></g></g></svg>