<svg xmlns="http://www.w3.org/2000/svg" viewBox="0 0 32 32"><title>Menu Cards</title><g id="Layer_2" data-name="Layer 2"><g id="Layer_1-2" data-name="Layer 1"> <path fill="#EC3236" d="M29.33,5.33h-13L14.63.45A.66.66,0,0,0,14,0H2.67A2.68,2.68,0,0,0,0,2.67V24a2.68,2.68,0,0,0,2.67,2.67H15.54l1.84,4.9A.65.65,0,0,0,18,32H29.33A2.68,2.68,0,0,0,32,29.33V8A2.68,2.68,0,0,0,29.33,5.33ZM1.33,24V2.67A1.34,1.34,0,0,1,2.67,1.33H13.52l8.21,24H2.67A1.33,1.33,0,0,1,1.33,24ZM17,26.67H21.2l-3,3.39Zm13.71,2.66a1.34,1.34,0,0,1-1.34,1.34H19.47l3.7-4.23h0s0,0,.05,0a.69.69,0,0,0,.09-.61l-.16-.45h4.19a.66.66,0,0,0,.67-.66.67.67,0,0,0-.67-.67H22.69l-.92-2.67h5.56a.66.66,0,0,0,.67-.66.67.67,0,0,0-.67-.67h-6l-.91-2.67h6.92a.66.66,0,0,0,.67-.66.67.67,0,0,0-.67-.67H20L19,13.33h8.29a.66.66,0,0,0,.67-.66.67.67,0,0,0-.67-.67H18.58L16.76,6.67H29.33A1.33,1.33,0,0,1,30.67,8Z"/> <path fill="#EC3236" d="M4.67,12H14a.67.67,0,0,0,.67-.67.66.66,0,0,0-.67-.66h-.07a4.66,4.66,0,0,0-3.3-3.8,1.42,1.42,0,0,0,0-.2A1.34,1.34,0,1,0,8,6.67a1.42,1.42,0,0,0,0,.2,4.68,4.68,0,0,0-3.31,3.8H4.67a.66.66,0,0,0-.67.66A.67.67,0,0,0,4.67,12ZM9.33,8a3.35,3.35,0,0,1,3.27,2.67H6.07A3.33,3.33,0,0,1,9.33,8Z"/> <path fill="#EC3236" d="M14,16H4.67a.67.67,0,0,0-.67.67.66.66,0,0,0,.67.66H14a.66.66,0,0,0,.67-.66A.67.67,0,0,0,14,16Z"/> <path fill="#EC3236" d="M14,20H4.67a.67.67,0,0,0-.67.67.66.66,0,0,0,.67.66H14a.66.66,0,0,0,.67-.66A.67.67,0,0,0,14,20Z"/></g></g></svg>