<svg xmlns="http://www.w3.org/2000/svg" viewBox="0 0 32 23.96"><title>Naming Cards</title><g id="Layer_2" data-name="Layer 2"><g id="Layer_1-2" data-name="Layer 1"> <path fill="#EC3236" d="M3.31,0A3.7,3.7,0,0,0,0,3.21c0,.31,0,17.22,0,17.54a3.72,3.72,0,0,0,3.32,3.18c.44,0,24.86,0,25.3,0A3.7,3.7,0,0,0,32,20.75c0-.32,0-17.23,0-17.54a3.66,3.66,0,0,0-.34-1.11,3.64,3.64,0,0,0-3-2.07C28.26,0,3.7,0,3.31,0ZM29,1.51a2.25,2.25,0,0,1,1.38,1.21c.22.48.21-.23.21,9.26s0,8.77-.21,9.25A2.3,2.3,0,0,1,29,22.45l-.26.09H3.25L3,22.45a2.3,2.3,0,0,1-1.52-1.61c-.06-.25-.07-.46-.07-8.86s0-8.62.07-8.86A2.35,2.35,0,0,1,3.28,1.43c.09,0,5.78,0,12.82,0H28.75l.26.1Z"/> <path fill="#EC3236" d="M10,9.31a.44.44,0,0,1,.12.32v4.66a.5.5,0,0,1-.14.35.48.48,0,0,1-.35.14.57.57,0,0,1-.22,0,.28.28,0,0,1-.15-.1L6.28,10.91v3.42a.45.45,0,0,1-.12.32.43.43,0,0,1-.33.13.39.39,0,0,1-.31-.13.45.45,0,0,1-.12-.32V9.67a.48.48,0,0,1,.14-.35.45.45,0,0,1,.35-.14.46.46,0,0,1,.23.05.41.41,0,0,1,.18.12l2.91,3.72V9.63a.44.44,0,0,1,.12-.32.41.41,0,0,1,.32-.13A.39.39,0,0,1,10,9.31Z"/> <path fill="#EC3236" d="M15.71,14.35a.47.47,0,0,1-.13.34.48.48,0,0,1-.32.13.43.43,0,0,1-.26-.09.76.76,0,0,1-.18-.24l-.41-1H12l-.41,1a.51.51,0,0,1-.17.23.46.46,0,0,1-.57,0,.45.45,0,0,1-.11-.31.77.77,0,0,1,0-.15l2-4.78A.48.48,0,0,1,13,9.22a.41.41,0,0,1,.29-.07.42.42,0,0,1,.26.08.4.4,0,0,1,.18.24l2,4.68A.51.51,0,0,1,15.71,14.35ZM12.42,12.6H14l-.81-1.87Z"/> <path fill="#EC3236" d="M21.6,9.31a.48.48,0,0,1,.14.35v4.63a.46.46,0,0,1-.49.49.53.53,0,0,1-.37-.14.48.48,0,0,1-.14-.35V11.07l-1.32,2a.55.55,0,0,1-.18.16.34.34,0,0,1-.22,0,.3.3,0,0,1-.2,0,.7.7,0,0,1-.19-.16L17.31,11v3.3a.48.48,0,0,1-.13.35.42.42,0,0,1-.33.14.44.44,0,0,1-.33-.14.49.49,0,0,1-.13-.35V9.66a.47.47,0,0,1,.15-.35.52.52,0,0,1,.36-.14.53.53,0,0,1,.24.06.4.4,0,0,1,.18.16l1.74,2.68,1.8-2.68A.44.44,0,0,1,21,9.23a.43.43,0,0,1,.22-.06A.52.52,0,0,1,21.6,9.31Z"/> <path fill="#EC3236" d="M26.46,14a.45.45,0,0,1,.14.32.45.45,0,0,1-.14.33.48.48,0,0,1-.35.13H23.43a.48.48,0,0,1-.49-.49V9.67a.48.48,0,0,1,.14-.35.46.46,0,0,1,.35-.14h2.68a.48.48,0,0,1,.35.13.46.46,0,0,1,.14.34.39.39,0,0,1-.14.32.46.46,0,0,1-.35.13H23.94v1.36h1.81a.48.48,0,0,1,.35.13.46.46,0,0,1,.14.34.42.42,0,0,1-.14.32.46.46,0,0,1-.35.13H23.94v1.48h2.17A.45.45,0,0,1,26.46,14Z"/></g></g></svg>