<svg xmlns="http://www.w3.org/2000/svg" viewBox="0 0 29.6 32"><title>Posters</title><g id="Layer_2" data-name="Layer 2"><g id="Layer_1-2" data-name="Layer 1"> <path fill="#EC3236" d="M29,25.8H24.15V3.07a.57.57,0,0,0-.59-.55h-2v-2A.58.58,0,0,0,21,0H17a.57.57,0,0,0-.59.56v2H6.23v-2A.58.58,0,0,0,5.63,0h-4a.57.57,0,0,0-.59.56v2H.59A.57.57,0,0,0,0,3.07V26.36H0V28.9a3,3,0,0,0,1,2.19A3.41,3.41,0,0,0,3.32,32h23a3.41,3.41,0,0,0,2.35-.91,3,3,0,0,0,1-2.19V26.36A.58.58,0,0,0,29,25.8ZM19.35,3.07v-2h1V4.29h-1Zm-1.78-2h.59V2.52h-.59ZM4,3.07v-2H5V4.29H4Zm-1.77-2h.58V2.52H2.24ZM5.45,26.36V28.9a2.06,2.06,0,0,1-2.11,2h0a2.22,2.22,0,0,1-1.51-.58,1.93,1.93,0,0,1-.62-1.41V26.36h0V3.63H2.82V4.85a.58.58,0,0,0,.6.55H5.63a.58.58,0,0,0,.6-.55V3.63H18.16V4.85a.58.58,0,0,0,.6.55H21a.58.58,0,0,0,.6-.55V3.63H23V25.8H6A.57.57,0,0,0,5.45,26.36Zm23,2.54a1.93,1.93,0,0,1-.62,1.41,2.24,2.24,0,0,1-1.51.58H5.86a3,3,0,0,0,.77-2v-2H28.41Z"/> <path fill="#EC3236" d="M19.91,24.68a.57.57,0,0,0,.6.55.56.56,0,0,0,.59-.55V6.84a.56.56,0,0,0-.59-.55H3.64a.56.56,0,0,0-.59.55v22a.57.57,0,0,0,.59.56.58.58,0,0,0,.6-.56V7.4H19.91Z"/> <path fill="#EC3236" d="M13.94,13a3.06,3.06,0,0,0-1.07-.41,6.72,6.72,0,0,0-1.1-.1q-.4,0-.78,0c-.25,0-.45,0-.62.07a.57.57,0,0,0-.48.55v4.09a.56.56,0,0,0,.44.54l.31.05.37,0h.61a7.21,7.21,0,0,0,1.14-.1,3.55,3.55,0,0,0,1.13-.41,2.5,2.5,0,0,0,.85-.89A2.91,2.91,0,0,0,15.05,15,2.29,2.29,0,0,0,13.94,13Zm-.25,2.95a1.3,1.3,0,0,1-.44.46,2.31,2.31,0,0,1-.71.26,5.62,5.62,0,0,1-.92.08h-.55V13.59h0c.21,0,.44,0,.68,0a4.94,4.94,0,0,1,.87.08,2.19,2.19,0,0,1,.65.24,1.3,1.3,0,0,1,.41.43,1.37,1.37,0,0,1,.16.72A1.94,1.94,0,0,1,13.69,15.91Z"/> <path fill="#EC3236" d="M15.71,11.17a5.92,5.92,0,0,0-2-.68,13.64,13.64,0,0,0-2.11-.17c-.66,0-1.33,0-2,.09a17.75,17.75,0,0,0-1.84.23.58.58,0,0,0-.49.55V23.68a.58.58,0,0,0,.6.56h2.64a.57.57,0,0,0,.59-.56V20H12a8.57,8.57,0,0,0,2.1-.26A5.69,5.69,0,0,0,16,18.83a4.74,4.74,0,0,0,1.34-1.54,4.62,4.62,0,0,0,.51-2.23,4.44,4.44,0,0,0-.6-2.41A4.31,4.31,0,0,0,15.71,11.17Zm.55,5.62a3.55,3.55,0,0,1-1,1.16,4.31,4.31,0,0,1-1.47.68,7,7,0,0,1-1.78.22h-.72l-.43,0-.25,0a.63.63,0,0,0-.5.12.55.55,0,0,0-.21.43v3.79H8.43V11.65l1.24-.14c.63,0,1.27-.08,1.89-.08a12.52,12.52,0,0,1,1.92.15,4.57,4.57,0,0,1,1.61.54,3.15,3.15,0,0,1,1.12,1.09,3.52,3.52,0,0,1,.43,1.85A3.66,3.66,0,0,1,16.26,16.79Z"/></g></g></svg>