<svg xmlns="http://www.w3.org/2000/svg" viewBox="0 0 22.28 32"><title>PresentationFolder</title><g id="Layer_2" data-name="Layer 2"><g id="Layer_1-2" data-name="Layer 1"> <path fill="#EC3236" d="M20.38,4.91h-.5v-3A1.9,1.9,0,0,0,17.46.07L.46,4.93h0A.63.63,0,0,0,0,5.54V31.37A.63.63,0,0,0,.63,32H20.38a1.9,1.9,0,0,0,1.9-1.9V6.81A1.9,1.9,0,0,0,20.38,4.91ZM17.8,1.29a.62.62,0,0,1,.56.11.62.62,0,0,1,.25.5v3H5.15ZM21,30.1a.64.64,0,0,1-.64.63H1.27V6.17H20.38a.64.64,0,0,1,.64.64Z"/> <path fill="#EC3236" d="M8.62,18.4a5,5,0,1,1,5-4.95A5,5,0,0,1,8.62,18.4Zm0-8.71a3.76,3.76,0,1,0,3.75,3.76A3.75,3.75,0,0,0,8.62,9.69Z"/><rect fill="#EC3236" x="7.99" y="9.09" width="1.27" height="4.35"/><rect fill="#EC3236" x="7.99" y="12.38" width="4.35" height="1.27"/><rect fill="#EC3236" x="5.64" y="14.37" width="4.35" height="1.27" transform="translate(-9.05 16.28) rotate(-66.81)"/> <path fill="#EC3236" d="M9.32,22h8c.21,0,.38-.28.38-.63h0c0-.35-.17-.63-.38-.63h-8c-.2,0-.37.28-.37.63H9C9,21.67,9.12,22,9.32,22Z"/> <path fill="#EC3236" d="M10.54,25.58h8c.2,0,.37-.29.37-.64h0c0-.34-.17-.63-.37-.63h-8c-.21,0-.38.29-.38.63h0C10.16,25.29,10.33,25.58,10.54,25.58Z"/> <path fill="#EC3236" d="M5,28.74h8c.21,0,.37-.28.37-.63h0c0-.35-.16-.63-.37-.63H5c-.21,0-.37.28-.37.63h0C4.6,28.46,4.76,28.74,5,28.74Z"/></g></g></svg>