<svg xmlns="http://www.w3.org/2000/svg" viewBox="0 0 32 13.33"><title>Tent Cards</title><g id="Layer_2" data-name="Layer 2"><g id="Layer_1-2" data-name="Layer 1"> <path fill="#EC3236" d="M31.91,9.59,29.71,2a2.67,2.67,0,0,0-2.58-2H4.67a.64.64,0,0,0-.52.25S.27,7.32.27,7.32A2.41,2.41,0,0,0,0,8.41a2.26,2.26,0,0,0,2.26,2.26h4l.12.57a2.66,2.66,0,0,0,2.61,2.09H9l20.61-.66A2.44,2.44,0,0,0,32,10.23,2.35,2.35,0,0,0,31.91,9.59ZM2.26,9.33a.93.93,0,0,1-.93-.92A.89.89,0,0,1,1.45,8l3-5.42L5.91,9.33Zm27.28,2L8.93,12a1.31,1.31,0,0,1-1.29-1L5.5,1.33H27.13a1.34,1.34,0,0,1,1.29,1L30.63,10a1.26,1.26,0,0,1,0,.28A1.11,1.11,0,0,1,29.54,11.33Z"/> <path fill="#EC3236" d="M24.62,4.79,11.4,5.21a.67.67,0,0,0,0,1.33h0l13.22-.42a.67.67,0,0,0,0-1.33Z"/> <path fill="#EC3236" d="M22.64,7.56l-9.27.29a.67.67,0,0,0,0,1.34h0l9.28-.28a.68.68,0,0,0,.64-.69A.66.66,0,0,0,22.64,7.56Z"/></g></g></svg>